<?xml version="1.0" encoding="utf-8"?>
<!-- Generator: Adobe Illustrator 24.1.3, SVG Export Plug-In . SVG Version: 6.00 Build 0)  -->
<svg version="1.1" id="LOGO" xmlns="http://www.w3.org/2000/svg" xmlns:xlink="http://www.w3.org/1999/xlink" x="0px" y="0px"
	 viewBox="0 0 1024 1398.73" style="enable-background:new 0 0 1024 1398.73;" xml:space="preserve">
<style type="text/css">
	.st0{fill-rule:evenodd;clip-rule:evenodd;fill:#EC1F26;}
	.st1{fill-rule:evenodd;clip-rule:evenodd;fill:#FFFFFF;}
	.st2{fill-rule:evenodd;clip-rule:evenodd;fill:#2E368F;}
	.st3{fill-rule:evenodd;clip-rule:evenodd;fill:none;stroke:#2E368F;stroke-width:3.8996;stroke-miterlimit:10;}
	.st4{fill:#2E368F;}
</style>
<g id="BACKGROUND">
	<polygon class="st0" points="1023.33,0.91 980.96,23.83 975.69,26.63 970.25,29.27 964.48,31.74 958.54,34.38 952.44,36.85 
		946.18,39.32 939.58,41.63 932.99,43.94 926.06,46.08 919.14,48.23 911.88,50.21 904.47,52.18 896.88,54.16 889.3,55.98 
		881.38,57.62 873.47,59.27 865.23,60.92 856.98,62.41 848.58,63.72 840.17,65.04 831.43,66.2 822.69,67.19 813.79,68.18 804.89,69 
		795.82,69.66 786.59,70.32 777.35,70.81 767.96,71.31 758.56,71.64 749,71.8 740.75,71.8 739.43,71.8 732.67,71.8 724.6,71.64 
		716.52,71.47 708.6,71.14 700.69,70.81 692.78,70.32 685.03,69.82 677.28,69.33 673.4,68.92 669.7,68.51 662.28,67.85 
		654.86,67.02 647.6,66.2 640.35,65.21 633.26,64.22 626.17,63.07 619.25,61.91 612.49,60.59 605.73,59.44 598.97,57.95 
		592.54,56.64 585.94,55.15 579.68,53.5 573.41,52.02 567.31,50.37 561.21,48.56 555.28,46.91 549.51,45.09 543.9,43.12 538.3,41.3 
		533.02,39.32 527.74,37.35 513.4,31.58 512,31.02 510.6,31.58 496.26,37.35 490.98,39.32 485.7,41.3 480.1,43.12 474.49,45.09 
		468.72,46.91 462.79,48.56 456.69,50.37 450.59,52.02 444.32,53.5 438.06,55.15 431.46,56.64 425.03,57.95 418.27,59.44 
		411.51,60.59 404.75,61.91 397.83,63.07 390.74,64.22 383.65,65.21 376.4,66.2 369.14,67.02 361.72,67.85 354.31,68.51 
		350.6,68.92 346.72,69.33 338.97,69.82 331.22,70.32 323.31,70.81 315.4,71.14 307.48,71.47 299.4,71.64 291.33,71.8 284.57,71.8 
		283.25,71.8 275,71.8 265.44,71.64 256.04,71.31 246.65,70.81 237.41,70.32 228.18,69.66 219.11,69 210.21,68.18 201.31,67.19 
		192.57,66.2 183.83,65.04 175.42,63.72 167.02,62.41 158.77,60.92 150.53,59.27 142.62,57.62 134.7,55.98 127.12,54.16 
		119.53,52.18 112.12,50.21 104.86,48.23 97.94,46.08 91.01,43.94 84.42,41.63 77.82,39.32 71.56,36.85 65.46,34.38 59.52,31.74 
		53.75,29.27 48.31,26.63 43.04,23.83 0.67,0.91 0.67,5.53 1.66,110.55 1.49,115 1.49,122.25 1.49,132.14 1.49,144.67 1.33,159.18 
		1.33,176 1.33,194.79 1.49,215.24 1.49,237.49 1.66,261.07 1.82,285.96 1.99,312.01 2.15,339.22 2.48,367.08 2.97,395.6 
		3.3,424.78 3.96,454.13 4.46,483.8 5.28,513.48 6.11,542.99 6.93,572.17 8.09,601.03 9.24,629.22 10.39,656.59 11.88,683.13 
		13.36,708.52 15.01,732.75 16.82,755.67 18.8,776.77 20.94,796.56 23.25,813.87 24.08,819.8 24.74,826.56 25.73,833.65 
		26.71,840.91 27.7,848.49 28.86,856.07 30.01,863.99 31.33,872.07 32.65,880.31 33.97,888.72 35.62,897.13 37.1,905.53 
		38.92,914.11 40.73,922.68 42.54,931.25 44.52,939.83 46.66,948.23 48.81,956.64 51.28,965.05 53.59,973.29 56.23,981.37 
		59.03,989.45 61.83,997.2 64.8,1004.95 68.1,1012.37 71.39,1019.62 75.19,1026.88 78.98,1033.64 83.26,1040.39 87.88,1046.82 
		92.99,1053.09 96.62,1057.05 101.89,1063.31 108.65,1070.9 115.74,1078.81 123.16,1086.56 130.91,1094.47 138.99,1102.38 
		147.23,1110.3 155.81,1118.21 164.38,1126.29 173.12,1134.2 182.02,1141.95 190.92,1149.7 199.66,1157.45 208.56,1164.87 
		217.14,1172.29 225.71,1179.38 234.12,1186.3 242.36,1193.06 250.27,1199.33 257.86,1205.59 265.11,1211.36 272.04,1216.8 
		278.3,1221.75 284.24,1226.36 289.68,1230.65 294.46,1234.44 298.74,1237.58 302.37,1240.38 305.17,1242.52 307.32,1244.17 
		308.64,1245.16 308.97,1245.49 510.6,1397.83 512,1398.73 513.4,1397.83 715.03,1245.49 715.36,1245.16 716.68,1244.17 
		718.83,1242.52 721.63,1240.38 725.25,1237.58 729.54,1234.44 734.32,1230.65 739.76,1226.36 745.7,1221.75 751.96,1216.8 
		758.89,1211.36 766.14,1205.59 773.73,1199.33 781.64,1193.06 789.88,1186.3 798.29,1179.38 806.86,1172.29 815.44,1164.87 
		824.34,1157.45 833.08,1149.7 841.98,1141.95 850.88,1134.2 859.62,1126.29 868.19,1118.21 876.77,1110.3 885.01,1102.38 
		893.09,1094.47 900.84,1086.56 908.26,1078.81 915.35,1070.9 922.11,1063.31 927.38,1057.05 931.01,1053.09 936.12,1046.82 
		940.74,1040.39 945.02,1033.64 948.81,1026.88 952.61,1019.62 955.9,1012.37 959.2,1004.95 962.17,997.2 964.97,989.45 
		967.77,981.37 970.41,973.29 972.72,965.05 975.19,956.64 977.34,948.23 979.48,939.83 981.46,931.25 983.27,922.68 985.08,914.11 
		986.9,905.53 988.38,897.13 990.03,888.72 991.35,880.31 992.67,872.07 993.99,863.99 995.14,856.07 996.3,848.49 997.29,840.91 
		998.27,833.65 999.26,826.56 999.92,819.8 1000.75,813.87 1003.06,796.56 1005.2,776.77 1007.18,755.67 1008.99,732.75 
		1010.64,708.52 1012.12,683.13 1013.61,656.59 1014.76,629.22 1015.91,601.03 1017.07,572.17 1017.89,542.99 1018.72,513.48 
		1019.54,483.8 1020.04,454.13 1020.7,424.78 1021.03,395.6 1021.52,367.08 1021.85,339.22 1022.02,312.01 1022.18,285.96 
		1022.34,261.07 1022.51,237.49 1022.51,215.24 1022.67,194.79 1022.67,176 1022.67,159.18 1022.51,144.67 1022.51,132.14 
		1022.51,122.25 1022.51,115 1022.34,110.55 1023.33,5.53 	"/>
	<path class="st1" d="M997.94,45.26c-0.02,0.01-0.05,0.02-0.07,0.04l0.07-2.84C939.47,75.07,845.45,96.16,739.73,96.2
		c-12.02-0.01-23.88-0.28-35.57-0.8c-74.01-3.34-140.59-17.06-190.76-37.45c-0.06,0.03-1.73-0.63-1.73-0.63s-1.64,0.66-1.73,0.63
		c-50.18,20.38-116.75,34.1-190.76,37.45c-11.69,0.52-23.55,0.79-35.57,0.8C177.89,96.16,83.87,75.07,25.4,42.46l0.07,2.84
		c-0.02-0.01-0.05-0.02-0.07-0.04l0.66,65.29v4.62l-0.16,7.25v9.89v12.36v14.67L25.73,176l0.16,18.79v20.44v22.09l0.16,23.58
		l0.16,24.89l0.16,26.05l0.16,27.04l0.33,27.86l0.49,28.52l0.49,29.02l0.49,29.51l0.66,29.51l0.66,29.51l0.82,29.51l0.82,29.02
		l1.15,28.69l1.15,28.19l1.15,27.2l1.48,26.38l1.48,25.22l1.65,23.91l1.81,22.59l1.98,20.77l2.14,19.29l2.14,17.15l0.82,6.26
		l0.82,6.59l0.82,6.92l0.99,7.09l0.99,7.42l0.99,7.58l1.15,7.75l1.32,7.91l1.32,8.08l1.32,8.08l1.48,8.24l1.65,8.24l1.65,8.24
		l1.81,8.41l1.81,8.24l1.81,8.24l2.14,8.24l1.98,8.08l2.31,7.91l2.31,7.75l2.47,7.75l2.47,7.42l2.64,7.25l2.8,7.09l2.97,6.92
		l3.13,6.43l3.13,6.26l3.3,5.94l3.63,5.77l3.79,5.28l3.96,4.95l3.63,3.79l5.44,6.59l6.43,7.09l6.76,7.42l7.09,7.58l7.58,7.58
		l7.75,7.75l8.08,7.75l8.41,7.75l8.41,7.75l8.57,7.75l8.74,7.75l8.74,7.58l8.74,7.58l8.57,7.42l8.74,7.25l8.41,7.09l8.24,6.92
		l8.24,6.59l7.75,6.26l7.58,6.1l7.09,5.77l6.76,5.28l6.43,5.11l5.94,4.62l5.28,4.12l4.78,3.63l4.12,3.3l3.63,2.64l2.8,2.14
		l1.98,1.65l1.32,0.82l0.49,0.33l186.79,141.29l1.07,0.72l1.07-0.72l186.79-141.29l0.49-0.33l1.32-0.82l1.98-1.65l2.8-2.14
		l3.63-2.64l4.12-3.3l4.78-3.63l5.28-4.12l5.94-4.62l6.43-5.11l6.76-5.28l7.09-5.77l7.58-6.1l7.75-6.26l8.24-6.59l8.24-6.92
		l8.41-7.09l8.74-7.25l8.57-7.42l8.74-7.58l8.74-7.58l8.74-7.75l8.57-7.75l8.41-7.75l8.41-7.75l8.08-7.75l7.75-7.75l7.58-7.58
		l7.09-7.58l6.76-7.42l6.43-7.09l5.44-6.59l3.63-3.79l3.96-4.95l3.79-5.28l3.63-5.77l3.3-5.94l3.13-6.26l3.13-6.43l2.97-6.92
		l2.8-7.09l2.64-7.25l2.47-7.42l2.47-7.75l2.31-7.75l2.31-7.91l1.98-8.08l2.14-8.24l1.81-8.24l1.81-8.24l1.81-8.41l1.65-8.24
		l1.65-8.24l1.48-8.24l1.32-8.08l1.32-8.08l1.32-7.91l1.15-7.75l0.99-7.58l0.99-7.42l0.99-7.09l0.82-6.92l0.82-6.59l0.82-6.26
		l2.14-17.15l2.14-19.29l1.98-20.77l1.81-22.59l1.65-23.91l1.48-25.22l1.48-26.38l1.15-27.2l1.15-28.19l1.15-28.69l0.82-29.02
		l0.82-29.51l0.66-29.51l0.66-29.51l0.49-29.51l0.49-29.02l0.49-28.52l0.33-27.86l0.16-27.04l0.16-26.05l0.16-24.89l0.16-23.58
		v-22.09v-20.44l0.16-18.79l-0.16-16.65v-14.67v-12.36v-9.89l-0.16-7.25v-4.62L997.94,45.26z"/>
	<polygon class="st2" points="967.44,171.05 967.44,168.09 967.44,161.82 967.44,159.68 967.44,154.9 967.44,153.41 967.44,150.61 
		966.99,122.54 966.95,118.63 939.75,143.19 934.47,147.31 928.37,151.43 921.61,155.56 913.86,159.68 905.62,163.8 896.55,167.76 
		886.82,171.71 876.44,175.5 865.39,179.13 853.69,182.76 841.49,186.39 828.79,189.68 815.6,192.98 801.75,196.11 787.57,199.08 
		772.9,201.88 757.73,204.52 742.07,207.16 726.08,209.47 709.76,211.61 693.11,213.75 675.96,215.57 658.65,217.22 641.01,218.86 
		623.2,220.02 606,221.11 604.9,221.17 586.6,222.16 567.97,222.82 549.18,223.48 530.22,223.81 511.26,223.81 492.3,223.81 
		473.34,223.48 454.54,222.82 435.91,222.16 417.61,221.17 416.52,221.11 399.31,220.02 381.51,218.86 363.87,217.22 346.56,215.57 
		329.41,213.75 312.76,211.61 296.44,209.47 280.44,207.16 264.78,204.52 249.61,201.88 234.94,199.08 220.76,196.11 206.91,192.98 
		193.72,189.68 181.03,186.39 168.83,182.76 157.12,179.13 146.08,175.5 135.69,171.71 125.96,167.76 116.9,163.8 108.65,159.68 
		100.9,155.56 94.15,151.43 88.05,147.31 82.77,143.19 55.57,118.63 55.52,122.54 55.07,150.61 55.07,153.41 55.07,154.9 
		55.07,159.68 55.07,161.82 55.07,168.09 55.07,171.05 54.91,182.76 54.91,196.44 54.91,212.1 54.91,229.75 54.91,249.03 
		55.07,269.81 55.07,279.7 55.07,291.9 55.24,315.48 55.4,339.88 55.73,365.27 55.9,391.48 56.39,418.35 56.72,445.56 57.22,473.25 
		57.87,501.12 58.53,528.81 59.36,556.51 60.18,583.88 61.17,610.92 62.16,637.3 63.32,662.85 64.63,687.58 66.12,711.32 
		67.6,733.91 69.42,755.18 71.23,774.63 73.21,792.76 74.3,801.02 74.53,803.48 75.19,809.09 75.85,815.02 76.67,821.12 
		77.49,827.55 78.32,834.15 79.31,840.91 80.3,847.83 81.45,854.92 82.6,862.01 83.27,866.25 83.92,870.58 85.24,878.17 
		86.73,885.91 88.21,893.66 89.69,901.58 91.34,909.33 92.99,917.07 94.8,924.82 96.78,932.57 98.76,940.16 100.9,947.57 
		103.05,954.99 105.36,962.25 107.66,969.17 110.3,976.1 112.78,982.69 115.58,989.12 118.55,995.22 121.51,1001.16 124.65,1006.76 
		127.94,1012.04 131.57,1016.98 135.36,1021.76 138.66,1025.23 143.77,1031.49 149.87,1038.25 156.14,1045.18 162.89,1052.27 
		169.98,1059.35 177.4,1066.61 184.99,1073.86 192.74,1081.28 200.65,1088.54 208.73,1095.95 216.97,1103.21 225.21,1110.3 
		233.29,1117.39 241.54,1124.31 249.61,1131.24 257.53,1137.83 265.44,1144.26 273.03,1150.53 280.44,1156.46 287.37,1162.23 
		294.13,1167.51 300.56,1172.62 306.49,1177.4 312.1,1181.69 317.05,1185.48 321.66,1189.1 325.45,1192.07 328.75,1194.55 
		331.55,1196.69 333.37,1198.01 334.69,1199 335.02,1199.33 510.76,1332.04 511.26,1332.32 511.75,1332.04 687.5,1199.33 
		687.83,1199 689.15,1198.01 690.96,1196.69 693.77,1194.55 697.06,1192.07 700.85,1189.1 705.47,1185.48 710.42,1181.69 
		716.02,1177.4 721.96,1172.62 728.39,1167.51 735.15,1162.23 742.07,1156.46 749.49,1150.53 757.07,1144.26 764.99,1137.83 
		772.9,1131.24 780.98,1124.31 789.22,1117.39 797.3,1110.3 805.55,1103.21 813.79,1095.95 821.87,1088.54 829.78,1081.28 
		837.53,1073.86 845.11,1066.61 852.53,1059.35 859.62,1052.27 866.38,1045.18 872.65,1038.25 878.75,1031.49 883.86,1025.23 
		887.15,1021.76 890.95,1016.98 894.57,1012.04 897.87,1006.76 901,1001.16 903.97,995.22 906.94,989.12 909.74,982.69 
		912.21,976.1 914.85,969.17 917.16,962.25 919.47,954.99 921.61,947.57 923.75,940.16 925.73,932.57 927.71,924.82 929.52,917.07 
		931.17,909.33 932.82,901.58 934.31,893.66 935.79,885.91 937.27,878.17 938.59,870.58 939.25,866.24 939.91,862.01 941.07,854.92 
		942.22,847.83 943.21,840.91 944.2,834.15 945.02,827.55 945.85,821.12 946.67,815.02 947.33,809.09 947.99,803.48 948.21,801.02 
		949.31,792.76 951.29,774.63 953.1,755.18 954.91,733.91 956.4,711.32 957.88,687.58 959.2,662.85 960.35,637.3 961.34,610.92 
		962.33,583.88 963.16,556.51 963.98,528.81 964.64,501.12 965.3,473.25 965.8,445.56 966.13,418.35 966.62,391.48 966.78,365.27 
		967.11,339.88 967.28,315.48 967.44,291.9 967.44,279.7 967.44,269.81 967.61,249.03 967.61,229.75 967.61,212.1 967.61,196.44 
		967.61,182.76 	"/>
</g>
<g id="CROSS__x26__BIBLE">
	<path class="st1" d="M497.23,766.14h29.22v44.08h55.47v29.22h-55.47l0,111.93l0.17,5.61c0,0-0.83,1.65-3.96,4.95
		c-3.3,3.3-10.07,12.22-10.57,12.22c-0.02,0.01-0.17,0.02-0.17,0.02s-0.14-0.01-0.16-0.02c-0.66,0-7.26-8.91-10.57-12.22
		s-4.13-4.95-4.13-4.95l0.17-5.61l0,0V839.44h-55.14v-29.22h55.14V766.14z"/>
	<path class="st1" d="M405.11,987.02c0,0,20.64-22.12,37.31-23.28c16.51-1.32,26.25-2.15,43.42,7.43
		c17.5,9.41,22.62,14.36,22.62,14.36l-0.17,149.73c0,0-31.86-19.48-47.38-21.46c-15.68-1.82-32.85-1.49-51.67,5.78
		c-18.82,7.26-33.68,15.35-33.68,15.35L405.11,987.02z"/>
	<path class="st1" d="M618.23,988.18c0,0-20.64-22.12-37.14-23.44c-16.67-1.16-26.41-1.98-43.75,7.43
		c-17.5,9.57-22.29,13.21-22.29,13.21l0.17,149.89c0,0,31.7-18.32,47.21-20.31c15.68-1.98,32.85-1.65,51.67,5.78
		c18.82,7.26,33.68,15.19,33.68,15.19L618.23,988.18z"/>
	<path class="st1" d="M375.06,1141.21l3.63,14.36c0,0,33.02-19.15,48.53-21.79c15.52-2.48,24.43-3.47,36.81,1.16
		c12.22,4.79,47.87,25.96,47.87,25.96s35.49-21.01,47.71-25.63c12.38-4.79,21.3-3.8,36.81-1.16c15.52,2.64,47.38,21.46,47.38,21.46
		l4.46-13.7c0,0-40.44-19.97-54.48-21.79c-14.03-1.98-29.22-2.81-48.53,5.61c-17.33,7.43-30.71,17-33.35,18.98
		c-1.32-0.99-15.19-11.39-33.68-19.31c-19.15-8.42-34.34-7.59-48.37-5.61S375.06,1141.21,375.06,1141.21z"/>
</g>
<g id="THAILAND">
	<path class="st1" d="M523.14,239.37c201.23-1.49,379.69-39.62,430.86-91.46c0,0,1.65,342.21-10.73,557.81H523.14V239.37z"/>
	<g>
		<path class="st0" d="M939.31,705.89c-13.04-12.88-56.13-56.29-69.17-74.62C854.96,609.81,779.68,503,779.68,503l-8.09-12.55
			l1.49,0.33h1.32h1.16l0.83-0.17l0.99-0.17l0.99-0.17l0.83-0.17l0.17,0.33l1.98,3.63h0.99l1.98,4.79l4.46-0.83h3.3
			c1.65,2.48,3.47,4.95,5.28,7.59c23.77,35,79.24,112.92,93.93,131.07c14.69,18.32,52.83,56.46,52.83,56.46l-0.66,12.71H939.31
			L939.31,705.89z M659.83,340.07c-15.19-16.18-74.62-75.44-136.69-80.06v-20.64c11.72,0.66,40.28,5.28,67.85,23.28
			c19.97,13.21,45.89,33.68,72.14,57.94l-7.1,2.31l-0.66,6.77l0.17,0.5l0.17,0.5l0.17,0.5l0.17,0.5l0.33,0.5l0.17,0.66l0.17,0.66
			l0.17,0.66l0.33,0.66l0.33,0.66l0.17,0.66l0.33,0.83l0.5,0.66l0.33,0.83L659.83,340.07z"/>
		<path class="st2" d="M903,708.2c-16.51-16.01-52.83-56.79-82.54-97.07c-12.88-17.5-87.49-111.76-97.23-121.33v-0.83l0.17-0.83
			l0.5-0.5l0.83-0.83l0.66-1.16l0.66-1.16l0.5-1.16l0.33-1.32l0.17-0.99v-0.99v-0.83v-0.66v-0.5l-0.17-0.5v-0.5v-0.5v-5.45
			l-0.33-1.32v-0.17h-0.17l0,0l0.17-0.17v-0.17v-0.17v-0.5v-0.5v-0.17v-0.33v-0.17v-0.33h0.17l0.17-0.5l0.17-0.5l0,0l1.98-1.82
			l-0.33-4.29v-0.5v-0.33v-0.17v-0.33v-0.17v-0.17v-0.17v-0.17v-0.17v-0.33l0,0c0.33,0.33,0.83,0.83,1.16,1.16
			c0.99,1.32,1.82,2.48,2.64,3.47l0.33,1.65v0.5v0.17v0.5l-0.17,0.66l-0.17,0.66v0.66v0.5v0.5v0.33l0.17,0.5v0.33v0.33l0.33,3.96
			l2.97,1.98l0,0l0.17,0.17l0.33,0.17l0.5,0.5l0.5,0.5l0.83,0.66l8.58,4.79l0.17-0.83c0.5,0.5,0.83,0.99,1.32,1.49
			c11.72,15.19,23.11,30.37,29.71,39.12c30.54,40.78,71.81,97.89,80.56,110.11c8.91,12.22,59.92,68.01,70.65,74.78
			c0.33,0.17,3.14,1.16,3.47,1.32H903L903,708.2z M693.51,456.12c-7.92-9.57-15.19-17.99-21.46-24.43
			c-33.35-35.66-70.49-84.52-149.56-112.26v-39.62c15.02,3.47,49.36,14.53,84.36,43.09c18.65,15.19,45.23,38.63,71.81,71.98
			l1.49,4.62l-0.66,0.33l-0.5,0.33l-0.5,0.5l-0.66,0.33l-0.5,0.33l-0.5,0.33l-3.63,2.48v2.81l-0.33,0.99l-0.33,1.49v0.99v0.83
			l0.17,0.83l0.17,0.66v0.5l0.17,0.5l0.17,0.5v0.17v0.5v0.66v0.83l0.17,1.49l1.32,2.97l0.5,0.33l0.33,0.83l0.66,3.14l2.15,1.32
			l0.83,1.32l0.66,0.99l0.17,0.17l0.66,2.97l2.15,1.65l0.33,0.17l0.83,2.81l2.81,1.32l0.33,0.17l0.17,0.17h0.33l0.17,0.33l0.33,0.17
			l0.33,0.17l0.33,0.33l0.5,0.17l0.5,0.33l0.5,0.33l0.5,0.17l0.17,0.5l0.5,0.5l0.5,0.66l0.33,0.66l0.5,0.5l0.5,0.5l0.5,0.5
			l0.17,0.17l0.17,0.5v0.5l0.17,0.5v0.5l0.17,0.5l0.17,0.33v0.5l0.17,0.5l0.17,0.5v0.33l0.17,0.5v0.33l0.17,0.5v0.33v0.33l0.17,0.33
			v0.33v0.33v0.17l-0.33,0.5l-0.5,0.99l-0.5,1.16l-0.33,1.16L693.51,456.12z"/>
		<path class="st0" d="M523.14,347c67.02,16.84,133.88,93.6,181.92,141.8c-1.98,5.12-1.82,2.48-7.59,12.05
			c-47.71-52.17-107.63-106.31-174.49-130.74L523.14,347L523.14,347z M719.92,503.99c23.11,27.73,28.89,33.35,69.5,84.69
			c40.78,51.34,96.57,116.88,96.41,117.04l-14.03,0.17c0,0-78.41-91.79-97.4-117.21c-19.15-25.42-39.45-46.39-61.74-70.98v-0.17
			v-0.5l0.17-0.33l0.33-0.33l0.33-0.5l0.33-0.33l0.33-0.5l0.5-0.5l0.33-0.5l0.33-0.5l0.33-0.5l0.33-0.66l0.33-0.5l0.33-0.66
			l0.33-0.5l0.33-0.66l0.33-0.66l0.17-0.66l0.33-0.83l0.17-0.33l1.82-0.33L719.92,503.99z"/>
		<path class="st2" d="M750.46,635.89c0.5-1.32,0.5-1.32,0.66-3.96c2.31-0.66,4.29-1.49,6.6-2.48c0.5,0.99,0.5,0.99,1.49,1.49
			c0,0.5,0.17,0.99,0.33,1.49c1.16,0.33,1.16,0.33,1.65,0c0.33,0.17,0.66,0.17,0.99,0.33c0.17,0.17,0.5,0.33,0.83,0.5
			c4.13-1.32,2.31-4.46,4.95-7.26c0.33-0.17,0.66-0.17,1.16-0.33c0.83-4.79,0.17-6.44-4.62-7.92c-0.5-1.16-0.5-1.16-2.15-2.31
			c-0.66-1.98-2.15-1.98-2.81-3.8c-0.17-0.66-0.33-1.49-0.33-2.15c-3.14-4.62-7.26-5.94-11.56-3.47c-0.5-0.17-0.99-0.5-1.32-0.66
			c-6.44,0.66-9.9-5.12-14.03-9.9c-0.17-0.5-0.17-0.99-0.17-1.49c-0.17-0.66-0.33-1.32-0.5-2.15c-0.17-0.17-0.5-0.5-0.83-0.83
			c-0.17-0.83-0.17-1.49-0.33-2.15c-0.17-0.99-0.33-1.98-0.33-2.81c-0.17-0.66-0.17-1.16-0.33-1.65c-0.5-1.16-0.5-1.16-1.16-4.62
			c0-0.99-0.17-1.82-0.17-2.64c-0.33-0.33-0.66-0.66-0.99-0.99v-0.17c0-0.33,0-0.66,0-0.99c-0.17-0.83-0.17-1.49-0.17-2.31
			c-0.5-1.32-0.83-2.64-1.16-3.96c-0.33,0-0.66-0.17-0.83-0.33c-0.5-1.49-0.5-2.15-1.82-1.65c0,0.99,0,1.98,0.17,3.14
			c-0.5,0-0.83,0-1.16,0c-0.17-0.99-0.33-1.82-0.5-2.64c-0.5-0.33-0.99-0.66-1.32-0.99c-0.5-1.16-0.5-1.16-0.99-4.79
			c0-2.48,0-4.95,0-7.43c-0.17,0-0.5,0-0.66,0c-0.33-0.5-0.66-0.99-0.99-1.49c0-0.5,0-0.99,0-1.49c0-0.66,0.17-1.32,0.17-1.82
			c-0.33,0-0.66,0-0.99,0c-0.66-0.66-1.49-1.32-2.15-1.98c-1.82,1.49-4.62,0.17-5.94,2.48c-0.33,0-0.5,0-0.83,0c0,0.17,0,0.5,0,0.83
			c-1.65-0.33-3.14-0.66-4.79-0.83c0-0.99,0-1.82,0-2.64c0.33-0.17,0.66-0.17,0.99-0.33c0.17-0.66,0.17-0.66-0.17-1.32
			c-0.17-0.33-0.17-0.83-0.17-1.16c-0.33-0.17-0.66-0.17-0.83-0.17c0-1.65,0-2.31-0.99-2.97c-0.83-2.81-0.83-5.28-0.83-8.42
			c0.83-0.83,0.33-2.64,0.17-3.96c0-0.66,0.5-0.99,0.5-1.16c0-0.99-1.65-0.33,2.15-2.81c-0.17-0.66-0.17-1.16-0.17-1.65
			c-0.33-1.32-0.33-1.32-0.66-1.49c0.33-1.32,0.66-2.64,0.99-3.96c1.49-0.83,7.43-8.42,4.79-9.9c0.17-0.66,0.33-1.32,0.5-2.15
			c0.5,0,0.83-0.17,1.32-0.17c-0.17-1.49-0.17-2.97-0.17-4.46c0-0.33,0.17-0.66,0.33-0.83c1.65-0.33,1.98-2.97,2.15-4.46
			c0.17-0.33,0.17-0.5,0.33-0.83c3.14,0,3.47-4.62,3.3-7.26c0.83-1.32,0.83-1.32,0.83-2.15c0.17,0,0.17-0.17,0.33-0.17
			c3.3-2.31,2.48-3.3,2.48-7.1c0-1.49,0-2.81,0-4.13c-0.5-1.82-0.5-2.48-0.5-4.29c0.17-0.83,0.17-1.65,0.33-2.64
			c0-0.17,0-0.33,0.17-0.66c0.66-1.49,0.66-2.81,1.82-3.8c-0.17-3.14,0.17-3.96,0-4.62c-0.5,0-0.99,0-1.49,0
			c-1.32-2.15-1.32-2.15-1.32-2.97c0-0.17,0-0.17,0-0.33c0.99-0.5,0.99-0.5,1.82-1.65c0.17-0.17,0.5-0.5,0.83-0.66
			c2.48-0.5,3.96-1.49,6.44-0.99c0.99,0,1.82,0,2.81,0c1.32-0.17,1.49-1.16,2.64-1.32c0.33,0.33,0.66,0.66,0.99,1.16
			c0,0,0,0.33,0,0.5c0.66,0,1.32,0,1.98,0c0-0.17,0-0.5,0-0.5c1.32,0.17,2.64,0.33,3.96,0.5c0,0.66,0.17,1.16,0.17,1.65
			c-0.99,0.5-1.16,1.16-1.49,2.31c0.17,0,0.33,0.17,0.66,0.33c0,0.5,0,0.99,0,1.49c-0.5,0.33-0.99,0.83-1.32,1.16
			c0,0.66,0,1.32,0,1.98c0.33,0.17,0.5,0.33,0.83,0.33c-0.17,0.83-0.5,1.49-0.66,2.15c-0.17,0.17-0.33,0.33-0.33,0.5
			c0.17,0.99,0.33,1.98,0.66,2.97c-0.83,1.65-0.83,2.15-0.66,4.13c1.16,0.66,1.98,1.82,2.97,2.31c0-0.33,0.17-0.66,0.17-0.99
			c2.81-1.16,5.12-0.99,8.25-0.83c0.17,0.66,0.17,0.66,0.99,0.83c0.33,0.5,0.83,0.83,1.16,1.16c0.17-0.33,0.33-0.66,0.5-0.99
			c0.66,0,1.32,0,1.98-0.17c3.14-2.15,5.61-3.3,7.76,0.66c1.65,0.66,1.65,0.66,3.8,0.99c1.16,2.31,2.48,5.61,4.79,5.78
			c0,1.98-0.33,3.96-0.99,5.28c1.32,2.31,3.3,0.66,6.27,0.99c0-0.66,3.14,0,3.3-0.5c0.83,1.65,2.64,3.3,4.13,5.94
			c0.17,0,1.16,0,1.49,0c0.33,0,0.5,0.17,0.83,0.33c0.5,1.16,0.99,2.31,1.49,3.63c0.17,0,0.5,0,0.66,0c0.17-1.49,0.33-2.81,0.5-3.96
			c-0.17,0-0.33,0-0.5,0c-0.66-0.99-1.49-1.98-2.15-2.97c0-1.49,0-1.49-0.33-1.98c-1.16-3.14-1.16-3.14-1.49-3.3
			c-0.33-0.33-0.66-0.66-0.83-0.99c0.66-4.29,0.99-4.95,0.99-6.6c-1.65-0.99-3.63-3.3-4.62-5.28c-0.99-0.17-0.99-0.17-1.32-0.83
			c0.33-0.5,0.66-1.16,1.16-1.65c-1.16-1.82-0.99-3.63-0.99-5.61c-0.66-0.5-1.49-0.83-2.15-1.16c-0.5-0.99-0.99-1.98-1.32-2.97
			c-0.17-0.66-0.33-1.32-0.5-1.98c-0.17-0.5-0.5-0.99-0.83-1.65c0-1.16-0.17-2.48-0.17-3.63c0-0.33,0.17-0.5,0.17-0.66
			c2.48,0,3.63,0,5.61-1.49c0-0.83,0.17-1.82,0.17-2.64c1.16-0.5,2.15-0.99,3.3-1.49c0.5-1.49,0.83-3.14,1.32-4.62
			c0.83-0.33,1.65-0.66,2.48-0.83c1.16-5.12,3.14-7.26,7.59-8.09c0.5,0,1.16,0,1.98,0c3.47-0.17,5.61-2.81,8.75-0.17
			c0.66,0,1.16,0,1.98,0.17c3.8,0.33,6.44,0,10.07-1.16c3.14,0.33,6.93,1.98,9.41-0.33c3.8,0,6.11,0.66,7.1,0.5
			c0,0.99,0,1.82,0,2.81c0.66,0.5,1.49,0.99,2.15,1.49c0.83-0.17,1.65-0.5,2.48-0.66c0.33-0.99,0.66-1.82,0.99-2.81
			c3.63-0.5,5.78-2.81,7.92-5.94c0-0.33-0.17-0.66-0.17-0.99c0-1.16-0.17-2.48-0.17-3.63c0-3.8,3.8-7.1-1.49-9.24
			c0.99-1.32,0.83-2.31,1.98-3.8c0-0.66-0.17-1.49-0.17-2.31c0.99-0.99,0.5-2.81,0.5-4.46c0.17,0,0.5-0.17,0.83-0.17
			c0,0,0.17,0,0.33,0c0-1.16,0-2.31,0-3.3c-0.17,0-0.33,0-0.33,0c-2.31-1.82-2.15-1.98-5.12-2.15c-0.66-2.15-0.66-2.15-0.99-4.46
			c0.83-0.66,0.83-0.66,0.99-1.32c-0.99-0.5-0.99-0.5-3.47-0.33c-2.31-1.49-4.79-2.15-4.79-2.64c-0.17-0.66-0.5-1.32-0.66-1.98
			c-1.16-1.98-1.82-2.64-3.63-3.63c0-0.66-0.17-1.16-0.33-1.82c-2.48-1.65-2.64-1.82-2.48-5.12c1.82-3.47-1.82-7.43,0.83-10.57
			c0.17,0,0.33,0,0.5,0c0-1.82,0-3.47,0-5.28c-0.17,0-0.33,0-0.5,0c-0.5-2.97-0.5-3.47-2.81-4.62c-1.16-0.83-2.48-1.65-3.63-2.31
			c-2.31-1.98-2.31-1.98-3.14-2.15c-0.5-1.65-3.14-6.44-4.46-7.1c0-0.5-0.17-0.99-0.17-1.32c-0.5-0.17-0.99-0.33-1.49-0.5
			c-1.82-5.45-2.64-5.61-7.43-5.61c-0.17-0.33-0.5-0.5-0.66-0.83c-3.3-0.33-5.28-1.98-8.75-1.82c-2.15-2.48-4.29,1.32-4.62,3.3
			c-0.83,0.17-1.49,0.5-2.15,0.66c-0.5,2.48-2.48,2.31-2.15,4.79c0,0.33,0,0.83,0,1.32c-3.63,1.32-6.11,2.81-9.57,4.79
			c0-1.16,0-2.15,0.17-3.14c-4.29-0.33-5.94-1.82-9.41-4.62c-0.17-0.5-0.17-0.83-0.17-1.32c-1.82-0.5-2.31-0.66-4.13-0.17
			c-0.17,0.33-0.17,0.66-0.33,0.99c-0.17,0-0.33,0-0.66,0c-0.66,2.48-2.15,2.48-3.96,1.98c-1.65,1.32-1.82,2.15-2.48,4.29
			c-1.65,0.17-2.31,0.83-3.63,1.65c0,0.66,0,1.32,0,1.98c-2.15,0-4.79,2.31-5.94,4.13c-0.66,0.17-0.66,0.17-1.98,1.98
			c-1.32,0.17-2.15-0.17-3.3-0.83c0.17-0.83,0.33-1.65,0.5-2.48c0-1.32,0.17-2.81,0.33-4.13c1.49-0.66,1.49-1.98,2.81-2.81
			c0.17-0.99,0.17-1.98,0.17-2.97c0-0.17,0-0.33,0-0.5c0.17-0.83,0.17-1.65,0.17-2.64c-0.17-0.33-0.33-0.83-0.5-1.16
			c-0.17-0.66-0.17-1.32-0.17-2.15c-0.5-0.17-0.83-0.33-1.32-0.5c-0.17-3.14,1.49-3.63,3.63-5.45c0.33-3.96-1.16-6.11,1.65-8.91
			c0-0.66,0-1.32,0-1.82c-1.98-1.65-2.31-5.45-2.31-8.42c0.33-0.17,0.5-0.33,0.83-0.33c0-2.48,0.5-2.97,0.5-4.29
			c-0.5-0.33-0.99-0.66-1.49-0.99c-0.5,0-0.99,0-1.49,0c-2.15,1.32-4.29,0.33-6.77,0c-0.33,1.16-1.32,1.32-2.15,1.65
			c-0.17,0.5-0.17,0.83-0.33,1.32c-1.98,0-2.97-0.83-4.95,0c-0.33-0.17-0.5-0.33-0.83-0.5c-0.83-4.79-0.83-4.79,1.49-8.58
			c0-0.83,0.17-1.65,0.33-2.48c0-1.16,0.17-2.15,0.17-3.14c-0.5-0.5-0.5-0.5-2.64-1.32c-0.99-3.8-2.81-5.45-5.78-4.46
			c-1.65,3.47-3.3,0.33-5.12-1.49c-4.62,0.33-5.28,5.78-9.74,2.64c-0.83,0-1.65,0-2.48,0.17c0,0.5,0,1.16,0,1.65
			c0.17,0.17,0.5,0.33,0.66,0.5c0.17,0.66,0.5,1.49,0.66,2.15c0,0.5,0,0.83,0,1.32c-0.33,0.17-0.66,0.33-0.99,0.5
			c-0.17,0.17-0.17,0.5-0.17,0.66c-3.96,0.17-9.41-3.3-9.41,4.95c-0.17,0.33-0.17,0.66-0.17,0.99c-0.17,0.66-0.33,1.32-0.5,1.82
			c-0.5,0.17-0.99,0.33-1.49,0.5c-0.33-0.33-0.5-0.83-0.66-1.16c-1.98,0-2.81,1.16-5.12,1.32c-2.81,1.32-6.44,2.15-9.57,0.99
			c-1.16-1.82-3.14-2.15-4.62-1.16c-0.17,1.16-0.17,2.48-0.33,3.63c-0.99,0.33-1.82,0.66-2.81,1.16c-0.33,1.82-0.66,2.81-1.49,4.46
			c-0.17,0.33-0.5,0.66-0.83,1.16c0.17,0.99,0.5,2.15,0.66,3.3c0,0.33,0.17,0.5,0.17,0.83c-0.33,0.99-0.66,2.15-0.99,3.14
			c-0.33,0.17-0.66,0.33-0.99,0.5c-0.17,0-0.33,0-0.66,0c0,0.66,0,1.49,0,2.31c0,0.66,0,1.16-0.17,1.82c0.5,0.17,0.83,0.5,1.16,0.66
			c0,1.98,0,3.96,0,5.94c-3.14,1.16-3.14,1.16-4.13,1.16c-1.65-1.32-2.31-1.65-4.29-2.15c1.16,2.97,1.98,6.44,3.47,8.91
			c3.47,0.66,1.82,0.99,3.3,5.28c0.83,0,0.5,0.5,0.33,1.32c0,0.99-0.17,1.98-0.17,2.81c1.82,1.98,3.96,4.29,4.95,6.93
			c0.66,0.17,1.16,0.5,1.82,0.83c0.83,2.31,2.81,4.62,4.62,5.94c0.66,1.16,0.99,1.49,2.15,1.82c0,1.49,0.33,1.98,0.33,2.81
			c1.49,0,3.14,0.66,4.13,1.98c0,0.17,0,0.33,0.17,0.66c0,1.16,0,2.48,0,3.8c0,1.65,0,2.48,1.16,3.47c0.33,0.66,0.66,1.32,0.99,1.82
			c0.17,0,1.65,6.77,4.79,5.28c0.83-0.33,1.65-0.33,2.48-0.5c-0.83,1.82-1.16,4.29-2.64,5.12c-0.5-0.5-0.5-0.5-1.98-0.5
			c0,0.17,0,0.33,0,0.5c-1.16,0.83-1.16,0.83-3.3,1.16c0,0.66,0,1.49,0,2.15c0.17,0,0.5,0,0.66,0c0,0.17,0,0.33,0,0.5
			c0,0.99-0.17,2.15-0.17,3.3c-0.33,0-0.33,0-0.66,2.15c0.17,3.96,0.17,3.96,0.83,5.61c0,0.66,0,1.32,0,2.15
			c-3.3,0.66-5.45,2.15-8.42,4.13c0,0.33,0,0.83,0,1.16c-1.16,0-0.17,3.3,0,3.96c0,2.64,0,2.64,0.33,2.64c0.17,0,0.5,0.17,0.83,0.33
			c0.33,1.49,0.66,2.81,0.99,4.13c0.99,0.83,1.65,0.99,2.15,2.31c0.17,0,0.33,0,0.5,0c0,0.33,0,0.66,0,0.99
			c1.49,0.17,1.65,2.64,1.98,3.96c0.66,0.5,1.32,1.16,2.15,1.65c0.17,0.66,0.33,1.32,0.5,1.98c2.48,1.16,3.63,2.48,6.27,3.14
			c0.5,2.15,2.81,4.79,4.46,5.94c0.66,4.46,2.81,10.4,1.82,14.86c-1.98,1.16-2.64,4.46-0.5,5.94c0,2.97,0.5,6.27,2.97,7.59
			c0,0.5,0.17,0.99,0.5,1.65c0.66,0.17,1.32,0.17,1.98,0.33c0.17,2.15-0.17,6.11,1.16,7.59c0.17,0.99,0.33,1.98,0.5,3.14
			c0.33,0.17,0.83,0.33,1.16,0.5c0,3.96,2.64,5.78,1.65,10.07c-0.5,0.5-0.5,0.5-2.97,0.99c-1.32,3.96-1.32,3.96-1.49,5.78
			c-0.99,0.66-0.99,0.66-1.32,1.32c-0.99,0.5-0.83,0.83-1.16,1.98c-0.5,0.83-0.83,1.82-1.32,2.81c-0.17,0.33-0.33,0.66-0.5,0.99
			c-0.17,0-0.33,0.17-0.5,0.33c-0.83,0-0.83,0-2.15,1.49c-0.66,0.17-1.32,0.17-1.98,0.33c-0.17,1.16-0.33,2.31-0.33,3.47
			c-2.31,0.5-3.63,0.5-4.46,3.3c-0.33,0-0.5,0-0.83,0.17c0,1.32,0,1.32,0.66,2.64c0,0.66,0,1.49,0,2.31
			c-2.15,2.48-2.97,6.93-4.46,10.07c-2.48,2.31-1.65,6.11-2.48,9.24c-2.15,2.64-1.82,6.44-4.79,7.92c-0.17,0.5-0.17,0.99-0.33,1.32
			c-0.17,0.17-0.33,0.17-0.5,0.17c0.17,0.83,0.17,1.65,0.33,2.48c0,0.17,0,0.5,0,0.66c0,0.66-0.17,1.49-0.17,2.15
			s0.17,1.49,0.17,2.15c-0.99,3.14-0.83,5.12-1.32,8.25c0,1.16,0.17,2.31,0.33,3.47c0.17,0.66,0.33,1.32,0.5,1.82
			c0,0.99,0,1.82,0,2.64c0.17,0,0.33,0,0.5,0c-0.17,1.82-0.33,3.63-0.33,5.45c0,0.99,0,1.98,0.17,2.97
			c0.66,2.48,1.16,2.64,3.14,2.64c0.33-0.99,0.83-2.15,1.16-3.14c0.17,0,0.5-0.17,0.66-0.17c0-0.66-0.17-1.16-0.17-1.65
			c-0.17-0.17-0.5-0.17-0.66-0.17c0.33-1.16,0.33-1.16,1.65-2.64c-0.5-0.17-0.83-0.17-1.16-0.17c-0.17,0-0.33,0-0.5,0
			c0.17-0.83,0.17-1.65,0.33-2.48c1.16-0.33,1.16-0.33,1.32-0.83c0-0.83,0.17-1.49,0.17-2.15c0-0.17,0-0.17,0-0.33
			c0.83,0,0.83,0,2.48-0.83c0,0.66,0,1.49,0,2.31c0.5,0,0.99,0,1.49,0c0.17,0.5,0.33,0.83,0.66,1.32c0.33,3.14,0.5,3.8,2.81,5.28
			c0.83-0.5,0.83-0.5,1.82-0.33c1.32,1.65,0.83,3.3,2.15,4.95c0.17,1.98,0.33,3.8,0.5,5.78c0.17,0,0.5,0.17,0.66,0.33
			c0.17,0.66,0.17,0.66,2.15,1.98c0.17-0.33,0.17-0.66,0.33-0.99c-0.33,0-0.5,0-0.66,0c0-0.66-0.17-1.16-0.17-1.65
			c0.83-1.16,0.66-1.82,0.66-3.47c0.17,0,0.33-0.17,0.5-0.33c0.33,0.17,0.66,0.5,0.99,0.66c0,0.66,0,1.16,0.17,1.65
			c0.17,0.17,0.5,0.33,0.83,0.5c0.17,0,0.33,0,0.5,0c0,2.15,0,2.15,0.33,3.14c0.66,0.66,0.66,0.66,0.83,1.98
			c0.5,0.83,0.5,0.83,1.49,0.99c0.17,0.5,0.33,0.99,0.33,1.49c0.33,0,0.66,0.17,0.99,0.17c0.33,0,0.83,0,1.32,0
			c0.5,1.16,0.66,1.65,1.82,2.15c0,0.33,0.17,0.83,0.17,1.16c0.66,0,1.16-0.17,1.65-0.33c0,0.83,0,0.83,0.33,0.83
			c-0.17,0.99-0.33,1.98-0.33,2.97c0,0.66,0,1.32,0.17,1.98c0,0.5,0,1.16,0,1.82c0.83,0.33,1.82,0.5,2.81,0.66
			c0.17,3.47,0,3.96,2.97,3.8c0.17,1.98,0.17,1.98,0.66,2.31c0.17,0,0.5-0.17,0.66-0.17c0.33,0,0.66,0.17,0.83,0.17
			c0.33,0.66,0.66,1.32,0.99,2.15c0.33,0,0.5,0.17,0.83,0.17c0,0.17,0,0.17,0,0.33c0,0.5,0,0.83,0,1.32
			c2.81-0.17,1.98-0.83,2.15-3.96c0.17,0,0.17,0,0.33,0c0-0.83,0.17-1.65,0.33-2.48c0.33-0.17,0.66-0.17,0.99-0.33
			c0.33,1.16,1.65,2.15,2.15,3.47c2.31,0.5,5.45,1.16,7.59,2.64c0.66-0.17,1.32-0.5,1.98-0.66c0.5,1.16,0.99,1.16,1.16,2.64
			c0.17,0.83,0.33,1.65,0.5,2.48c1.98,0.33,3.63-0.17,5.61,0.33c-0.17,0.83-0.17,1.49-0.33,2.31c0.33,0,0.5,0,0.66,0
			c0,1.32-0.17,2.81-0.17,4.13c-1.65,0.99-2.15,1.82-2.15,4.13c0.33,0.33,0.66,0.66,1.16,1.16c1.32,1.32,1.32,1.32,2.15,2.64H750.46
			z"/>
	</g>
</g>
<g id="GLOBE__x26__PEOPLE">
	<path class="st1" d="M78.76,704.24C67.05,487.98,69,147.91,69,147.25c51.08,51.67,230.33,89.97,431.22,90.63v466.35H78.76z"/>
	<g>
		<path class="st3" d="M273.54,427.4c50.18,0,90.96-40.94,90.96-90.96c0-50.18-40.78-91.12-90.96-91.12s-91.12,40.94-91.12,91.12
			C182.41,386.46,223.36,427.4,273.54,427.4z"/>
		<path class="st3" d="M226.49,258.68c9.24,2.15,12.71,0.99,12.71,6.77c0,11.39,13.87-0.33,13.87,12.71c0,6.27-11.23,6.6-11.23,7.92
			c0,13.54,17.17,0.83,19.64-0.33c3.47-1.82,16.84-6.44,20.3-2.97c1.98,1.98,4.13,4.95,5.45,7.92c1.16,2.97,10.9-0.83,10.9,6.77
			c0,4.13,1.32,16.34-0.83,19.81c-1.65,2.48,0.83,12.22-3.3,12.22c-2.15,0-11.06,0.83-11.89,1.98"/>
		<path class="st3" d="M278.99,425.91c-2.81-6.44,3.47-12.55,7.59-16.51c7.26-7.43,3.47-9.9,18.82-9.9c7.1,0,7.76-0.66,12.38-5.28
			c5.78-5.61,4.29-8.25,12.22-2.31c7.92,5.94,16.18,0.5,6.6,10.07C322.9,415.68,299.29,425.91,278.99,425.91z"/>
		<path class="st3" d="M304.58,389.76c-3.63,0-10.73-1.82-10.73-5.45c0-0.17,3.96-3.47,4.46-3.96c0.99-0.99,2.64-2.15,3.14-3.14
			c0.99-2.15,2.31-5.94,5.45-5.94c0.99,0,2.31,0.33,3.14,0.33c0.17,0,2.15,4.62,2.15,4.95c0.33,1.65,0.99,3.14,0,4.62
			c-0.17,0.5-0.83,2.15-0.99,2.81C311.18,384.31,304.41,390.25,304.58,389.76z"/>
		<path class="st3" d="M309.86,339.24c-3.3,0-6.27,0.17-9.41,0.17c-3.63,0-1.16-5.28,0.33-6.11c1.65-0.99,4.79-3.96,4.79-6.27
			c0-2.81,2.15-5.94,2.15-8.91c0-3.96,3.14-8.09,7.1-8.09c3.47,0,3.8,4.62,4.95,6.6c0,0,1.65,1.32,1.82,1.98
			C323.56,322.4,312.33,337.1,309.86,339.24z"/>
		<path class="st3" d="M303.25,251.91c0,4.29-0.99,9.9-0.99,14.69c0,2.97,5.12,6.6,7.43,7.59c2.48,1.32,2.81,4.95,2.81,7.59
			c0,5.94,14.2,4.62,17.33,11.23c2.48,4.95,1.82,8.25,1.82,14.2c0,1.98,7.26,1.98,9.24,1.98c5.28,0,3.96,8.91,8.09,10.24
			c3.96,1.32,11.23,5.61,14.69,5.61"/>
		<path class="st3" d="M270.24,361.86l-1.98-6.44l2.97-5.61l7.59-2.64l5.12-0.5c0,0,1.82-7.1,0.99-8.75
			c-0.99-1.82-3.63-2.97-3.63-2.97s1.32-3.47,0.66-5.28c-0.66-1.65-4.13-4.29-4.13-4.29l-4.13-1.49l-5.45,1.16l-7.92,3.14l0.66-4.95
			c0,0,0.83-3.47,0.5-5.12c-0.33-1.82-3.8,1.16-3.8-2.15c0-3.14-0.83-3.8-0.83-3.8s-0.66-1.16-3.3,0.66
			c-2.48,1.65,0.33,3.14-5.12,3.8c-5.61,0.5-7.1,2.31-7.1,2.31l-0.33,6.93c0,0,5.28,4.46,5.94,8.25c0.5,3.8,0.83,5.28-1.16,6.93
			c-2.15,1.82-4.46,1.49-2.64,3.8c1.65,2.31,4.29,0,4.95,4.95c0.5,4.95,3.14,5.94,1.98,9.08c-1.16,3.3-0.33,5.61-3.47,7.1
			c-3.14,1.32-0.66,3.96-0.83,5.45c-0.33,1.49-2.15,9.08-2.15,9.08s3.63,2.31,5.61,3.47c1.98,1.16,1.82,4.95,3.8,6.77
			c1.98,1.82,7.26,1.82,7.92,4.29c0.5,2.64,2.64,2.48,5.12,1.49c2.64-0.83,6.44-0.83,0.33-5.45c-6.11-4.79-5.78-1.82-8.09-4.79
			c-2.31-2.81-2.31-5.78-3.3-7.76c-0.83-2.15-1.65-3.63-1.98-5.94c-0.33-2.31-0.33-3.47,1.16-7.76c1.49-4.46,1.16-5.61,1.16-9.08
			c0-3.63,1.49-3.63,2.97-3.63c1.49,0,2.64,4.13,2.64,4.13S267.93,361.53,270.24,361.86z"/>
		<path class="st3" d="M184.4,347.5c0,0,3.63-1.49,4.95-2.64c1.49-1.16,1.16-12.88,1.16-12.88s-0.83-5.78,0.66-6.93
			c1.49-1.16,9.9-6.77,9.9-6.77l10.9,9.74l3.8,11.39l0.83,7.76l2.64-1.16l4.29-10.4l2.97-4.79l8.75,1.16l0.83,3.3l6.77,7.59"/>
		<g>
			<path class="st2" d="M440.6,437.96l-1.32-0.83l-0.99,3.14l-3.3,2.15l-1.65,0.33l-1.49-0.66l-1.82,1.98l-0.17,1.49l-0.99,3.3
				c0,0-0.83,3.14-3.14,3.8c-2.15,0.66-6.44,2.81-9.41,4.13c-2.97,1.16-7.92,3.63-8.91,3.3c-1.16-0.17-10.24-0.66-12.55-0.83
				c-5.12-0.5-10.73-4.13-15.85-4.79c-1.32-0.33-4.29,0.5-6.11,1.65l-6.27-2.15c0,0-1.82-2.81-1.82-5.28c0-2.48,1.32-3.3,1.32-3.3
				s4.79-2.48,0.33-8.42c-2.64-3.63-2.48-4.79-3.47-5.94c-0.66-0.83-1.82-1.65-4.79-3.14c-7.1-3.96-4.29-2.81-8.75-2.15
				c-4.46,0.5-7.1,3.96-10.07,7.59c-2.97,3.63,1.16,9.24,1.49,11.72c0.33,2.48,4.46,5.78,4.46,5.78l5.78,7.26l4.13,0.66l3.3,1.82
				c0.33,3.47,0.66,2.81-1.98,4.46c-1.16,0.66-6.77,2.48-9.57,3.8c-4.79,2.31-3.96,18.49-5.12,20.97c-0.66,1.32-3.96,8.58-3.96,8.58
				l-8.25,13.7l-1.98,1.49l-1.49,1.16l-0.83,0.5l-0.17-0.17l-0.66,0.5l-1.82,0.83l0.17,0.16l-0.66,0.33c0,0-3.96,3.47-7.1,4.29
				c-3.14,0.83-3.96,4.13-7.76,3.63c-1.49-0.17-3.47-0.17-5.45,0.17c-2.31-0.17-4.62-0.5-5.78-1.16c-0.99-0.83-0.99-1.65-0.99-1.65
				s-0.33-1.82,0.5-3.63c0.83-1.65,0.99-0.83,1.65-4.62c0.83-3.96,0.99-3.96,0-8.91c-0.83-4.95,0.17-4.79-1.49-7.43
				c-1.65-2.48-5.78-4.62-8.09-4.79c-0.17,0-0.17,0-0.33,0c-2.31,0-3.96,0.83-4.95,1.32c-0.99,0.66-2.97,2.81-4.62,3.8
				c-1.49,1.16-1.82,4.46-1.98,5.78c-0.33,1.32,0.83,3.96,1.16,6.11c0.17,2.15,1.49,3.8,0.99,5.45c-0.33,1.49,3.14,3.96,4.29,5.78
				c1.16,1.98,2.31,0.99,2.31,0.99l0.5,2.48l-0.83,1.82l-0.99,0.17c0,0-5.78,0.66-8.75,0.66c-2.81,0-6.44,0-9.41-0.66
				c-2.81-0.83-3.63-2.97-6.77-5.12c-3.14-1.98-6.6-2.48-6.6-2.48s-0.5-0.5-1.32-0.99h0.17l-0.66-0.33
				c-0.33-0.17-0.5-0.33-0.83-0.33v-0.17l-2.15-0.99l-1.98-1.49l-5.28-6.77l-3.8-2.31l-4.95-8.58l-7.1-11.89c0,0-0.99-1.65-1.82-3.8
				c-1.16-2.31-2.48-5.12-2.81-6.27c-0.5-1.65-2.64-2.97-4.62-3.96c-1.16-0.5-2.15-0.99-2.97-1.16c-1.65-0.5-2.15-0.83-2.15-2.31
				c0-3.14,1.49-2.97,1.49-2.97l1.82,0.17c0.66,0,1.32-0.17,1.82-0.5c1.16-0.5,2.15-1.16,2.81-1.49c1.49-0.66,3.14-2.15,4.62-3.96
				c2.48-3.14,4.46-7.59,4.95-10.4c0.33-1.32,1.65-8.58-0.83-11.39c-1.16-1.16-2.81-1.98-4.13-2.64c-1.82-0.66-3.3-0.99-3.3-0.99
				c-1.49,0-2.81,0.17-4.13,0.5c-8.09,2.15-13.87,10.9-11.89,20.97c-2.48,6.93,0,4.95-5.12,7.43c-2.15-1.49-3.47-2.48-5.61-3.47
				c-1.98-1.16-5.94,1.16-5.94,1.16s-7.76,1.49-9.57,1.49c-1.65,0-9.41-0.66-11.39-2.64c-1.82-2.15-5.78-7.26-5.78-7.26l-6.6-4.46
				l-5.12-4.29l-3.14-6.77l-2.64,1.16l-1.32-1.82l-0.66-4.29h-1.49l-0.17,4.29l0.17,1.49c-0.17-0.66-0.66,3.14-0.5,3.63
				c0.17,0.5,1.65,2.31,2.15,2.48c0.33,0,0.83,0.17,1.32,0.33l1.65,2.31l3.47,4.46l12.55,15.35l10.24,4.79l15.35,8.91l1.65,3.96
				l-4.13,31.86l-0.66,2.97l5.12,5.12c0,0-0.83,11.39-0.83,20.14c0,8.75,3.3,22.45,3.8,30.37c0.66,7.76,3.3,12.88,4.29,17.66
				c0.83,4.79,2.64,12.38,2.64,20.97c0,6.27,2.97,14.03,4.62,18.82c0.66,1.82-0.5,3.8-0.5,3.8v2.64
				c-20.47,4.79-36.98,10.73-46.22,16.67h60.25h7.43h27.07h38.63h6.6c2.97-2.15,4.46-3.8,4.46-3.8l8.09-3.8
				c0,0,6.77-1.32,19.81-2.48c0.33,0,0.66-0.16,0.99-0.16c8.91-0.66,24.43-1.16,35.33-1.32c5.78-0.17,10.24-0.17,11.56-0.17
				c3.8,0,0.83,0.83,16.84,6.27c16.01,5.45,19.81,1.65,19.81,1.65l6.6,2.48l7.43,0.33c-9.74-7.92-28.56-14.69-52.99-19.48l1.32-5.28
				l1.49-5.28l0.83-0.99l1.82-7.43c0.17-0.66,2.64-1.98,2.81-2.48c1.49-6.27,0.83-6.44,1.32-10.4c0.33-3.47,1.98-8.25,2.31-10.57
				c0.33-2.48,1.82-21.63,1.82-21.63l0.5-19.48l0.99-8.25l6.27-5.45c-3.63-11.39-6.27-20.14-7.43-32.19
				c-1.16-12.71-6.44-13.21-1.65-32.19c0.83-3.14,2.48-3.63,2.48-3.63l5.28,0.5c0,0,4.79,0.99,10.4,0.17
				c5.45-0.83,6.77-0.17,9.41-1.49c6.44-2.97,12.05-5.94,17.33-10.4c2.97-2.48,5.12-3.96,8.42-7.92l1.16-2.31l0.99-1.98
				c0,0,0.83-2.48,0.99-4.13C441.1,439.12,440.6,437.96,440.6,437.96z M222.03,632.92c-2.15,0.33-4.13,0.83-6.11,1.16l-1.32-1.49
				l-0.33-0.33h-1.98l-3.96-5.12c0,0-0.66-9.24-0.66-10.9c0-1.82-3.96-19.31-3.63-21.79c0.66-6.11,0-12.88,0-19.15
				c0-3.8-1.49-22.45,0.66-18.82l1.98,3.63c0,0,0.99,3.14,0.99,5.28c0,2.15,3.47,18.16,3.47,18.16l3.47,7.59l0.83,1.98l2.48,6.6
				c0,0,1.32,12.22,3.14,15.02c0.33,0.66,0.66,1.32,0.99,2.15c0.99,2.81,1.49,6.27,1.49,6.27l2.15,9.24
				C224.35,632.59,223.19,632.76,222.03,632.92z M279.65,576.63c0,0,0,5.28-0.83,8.91c-0.83,3.63,0.99,5.28,0.33,8.91
				c-0.83,3.63-0.83,5.78-2.97,9.41c-2.15,3.8-2.81,11.06-3.47,13.7c-0.5,2.64,0.33,4.95,0.33,4.95s-4.29,2.15-6.27,2.64
				c-2.15,0.5-3.47,1.32-3.47,1.32l-0.33,1.49c-4.62,0.33-9.24,0.66-13.87,1.16c-3.14,0.33-6.27,0.83-9.24,1.16l-0.33-1.16
				l-3.14-2.48l-4.13-3.47l-0.83-5.61c0,0-0.33-3.14-0.66-8.42c-0.33-5.28-2.15-8.42-3.47-12.55c-1.49-4.29-2.48-8.09-2.48-8.09
				v-3.47c0,0,0.66-12.38-0.66-20.8c-0.83-5.12-1.82-8.25-2.15-11.39c-0.5-2.81-0.66-5.61,0-9.74c0-0.83,0.17-1.49,0.17-2.15
				l3.14-0.33l1.98-1.65l-3.14-9.41l-2.15-3.63l-0.99-1.49l-0.17-3.8l-2.48-10.07c0,0,0-4.62,0-6.27c0-1.65,0.99-6.27,0.99-6.27
				l1.65,1.82c0,0,0.33,0.33,0.99,0.83c1.82,1.65,6.11,5.61,6.93,7.59c1.32,2.48,10.57,9.08,10.57,9.08l2.64,3.14l0.5,0.66l0.5,0.5
				h0.17l3.63,3.47l2.15,0.83l0.83,0.5l1.32,1.98c0,0,5.45,3.96,6.77,5.12c1.32,0.99,4.79,4.62,9.74,5.94
				c4.95,1.32,6.77,4.29,6.77,4.29l1.16,3.14l-0.83,4.95c0,0-0.99,4.46-3.14,6.6c-2.15,2.15-1.82,5.78-3.14,8.42
				c-1.32,2.64-0.5,3.96-0.5,3.96l3.3,1.82l8.42-0.33L279.65,576.63z M294.01,623.84c-1.32,2.15-3.96-0.99-4.46,1.16
				c-0.17,0.5-0.17,1.16-0.17,1.82c-0.5,0-1.16,0-1.65,0c-2.31,0-4.46,0-6.6,0.17l-0.83-1.32l0.66-3.8c0,0,1.16-0.83,2.48-3.8
				c1.32-2.81,0-0.66,1.49-8.42c1.49-7.59,1.98-6.77,1.98-6.77s0.33-0.66,0.83-1.65c1.16-2.31,3.14-6.6,3.14-8.42
				c0-2.31,0.83-8.09,0.83-8.09l1.49-1.32l0.76,4.39c-0.07-0.48-0.07-0.46,0.07,0.39l-0.07-0.39c0.17,1.27,0.8,6.13,0.56,8.65
				c-0.5,6.44,0.5,15.85,0.5,19.81C295,619.22,295.33,621.86,294.01,623.84z M344.19,536.35l7.26,4.46l-0.83,12.38
				c0,0,1.49,11.23,0.33,16.18c-1.16,4.79-0.99,10.24-1.82,18.49c-0.66,6.6-1.32,13.54-1.98,20.3l-0.5,4.95l1.32,2.48l-4.62,13.87
				c-4.95-0.66-10.24-0.99-15.68-1.49c-7.76-0.5-15.85-0.83-24.27-1.16l0.17-0.33l-1.32-3.63c0,0,0-3.47,1.49-10.07
				c1.65-6.44,1.32-6.27,1.65-11.72c0.17-5.61,2.31-8.42,2.31-13.37c0-5.12-0.83-14.86-0.83-14.86s6.11,1.32,10.07-0.99
				c3.96-2.31,1.49-4.46,1.49-4.46s-0.99-1.82-1.49-5.28c-0.5-3.3-1.82-3.14-4.46-6.77c-2.64-3.63-4.46-4.95-6.44-7.59
				c-1.82-2.64-1.82-4.29-1.82-4.29l1.16-2.64c0,0,1.82-2.31,8.09-6.6c6.27-4.13,5.28-2.48,9.41-7.1c4.29-4.46,2.97-2.48,2.97-2.48
				s0.83-0.66,1.82-1.49c1.65-1.16,3.63-2.64,3.63-2.81c0.17-0.17,1.32-0.66,1.65-1.16h0.17c0,0,4.46-6.77,9.24-13.54
				c4.79-6.6,8.09-10.4,8.09-10.4l2.48-6.44l-0.5,6.27l0.83,6.11c0,0,0.66,4.46-2.15,8.09c-2.64,3.63-1.65,6.11-2.81,9.08
				c-1.16,3.14-4.46,14.03-4.46,14.03L344.19,536.35z M371.6,572.01c-0.99,5.78,0,9.08-0.66,17.33c-0.66,8.09-1.16,7.59-1.16,10.57
				c0,2.97-2.15,13.87-2.15,13.87l0.83,0.5l-0.99,6.77l-4.13,7.26l-0.33,0.66l-1.65,2.81c-2.48-0.33-5.12-0.83-7.76-1.16
				c6.77-15.35,2.64-7.59,5.78-15.85c0.33-0.99,1.49-1.82,1.98-2.81l0.66-9.41c0-3.47,0.5-7.1,0.99-10.57
				c0.83-6.27,2.15-12.22,1.82-17.83c-0.66-8.25,2.64-15.19,2.64-15.19l0.5-8.09l3.14-0.33l1.32,8.42
				C372.42,558.97,372.42,566.23,371.6,572.01z"/>
		</g>
	</g>
</g>
<g id="CIRCS">
	<path class="st4" d="M423.14,180.87l1.21,1.11c-0.84,1.61-1.58,3.25-2.22,4.92c-3.73,1.96-7.32,3.35-10.78,4.17
		c-3.46,0.82-7.43,1.23-11.94,1.23c-8.42,0-15.55-1.48-21.37-4.44c-5.82-2.96-10.3-7.12-13.43-12.49c-3.13-5.37-4.7-11.53-4.7-18.47
		c0-10,3.54-18.19,10.63-24.57c7.09-6.38,16.87-9.57,29.35-9.57c4.15,0,8.25,0.37,12.32,1.11c4.07,0.74,8.11,1.87,12.13,3.38
		l0.34,0.72c-0.59,1.74-1,3.41-1.23,5.02c-0.43,2.8-0.76,6.27-0.99,10.42h-4.05c-0.19-5.08-0.39-7.87-0.58-8.37
		c-0.19-0.5-1.08-1.35-2.65-2.56c-1.57-1.21-3.7-2.19-6.38-2.94c-2.68-0.76-5.64-1.13-8.89-1.13c-7.71,0-13.84,2.38-18.38,7.14
		c-4.55,4.76-6.82,11.38-6.82,19.87c0,9.2,2.73,16.64,8.2,22.33c5.05,5.27,11.98,7.91,20.79,7.91c3.41,0,6.6-0.35,9.57-1.06
		C416.25,183.88,419.54,182.64,423.14,180.87z"/>
	<path class="st4" d="M430.86,191.34v-4.05c3.73-0.32,5.87-0.63,6.41-0.92c0.35-0.19,0.61-0.5,0.77-0.92
		c0.32-0.77,0.55-3.38,0.68-7.81c0.16-6.88,0.24-12.3,0.24-16.25c0-5.34-0.06-12.12-0.19-20.35c-0.13-6.14-0.43-9.9-0.92-11.28
		c-0.13-0.42-0.39-0.74-0.77-0.96c-0.51-0.32-2.59-0.68-6.22-1.06v-4.05c6.65,0.23,10.95,0.34,12.88,0.34l24.16-0.34
		c5.24,0,9.06,0.51,11.45,1.52c2.39,1.01,4.29,2.63,5.69,4.86c1.4,2.23,2.1,4.86,2.1,7.87c0,3.85-1.12,7.23-3.35,10.14
		c-2.23,2.91-6.12,5.48-11.65,7.73l10.27,15.48l8,11.86c1.51,1.93,2.64,3.09,3.38,3.5c0.74,0.4,1.94,0.62,3.62,0.65V191l-2.85,0.05
		c-8.17,0.06-13.42,0.16-15.77,0.29c-2.8-4.47-6.98-10.95-12.54-19.44l-9.93-15.1c0.29-0.55,0.53-1.13,0.72-1.74
		c1.29,0.16,2.23,0.24,2.84,0.24c2.99,0,5.93-1.21,8.83-3.62c2.89-2.42,4.34-5.86,4.34-10.34c0-3.9-1.14-6.93-3.43-9.08
		c-2.29-2.16-5.72-3.24-10.3-3.24c-1.45,0-3.42,0.11-5.9,0.34l-0.32,14.24l-0.41,18.05c0,4.09,0.16,9.32,0.48,15.69
		c0.26,4.79,0.51,7.48,0.77,8.06c0.19,0.42,0.54,0.76,1.05,1.01c0.67,0.39,2.85,0.68,6.52,0.87v4.05
		c-5.78-0.23-10.9-0.34-15.36-0.34C441.42,191,436.32,191.11,430.86,191.34z"/>
	<path class="st4" d="M502.19,191.34v-4.05c4.41-0.22,6.9-0.59,7.48-1.11c0.58-0.51,0.93-1.78,1.06-3.81
		c0.26-4.24,0.39-12.15,0.39-23.73c0-4.44-0.06-10.87-0.19-19.29c-0.06-5.75-0.19-8.91-0.39-9.48c-0.19-0.56-0.53-0.97-1.01-1.23
		c-0.71-0.35-3.15-0.66-7.33-0.92v-4.05c6.62,0.23,11.69,0.34,15.19,0.34c6.04,0,11.51-0.11,16.4-0.34v4.05
		c-4.4,0.26-6.88,0.6-7.44,1.04c-0.57,0.43-0.93,1.44-1.09,3.01c-0.26,3.09-0.39,9.34-0.39,18.76c0,12.54,0.05,21.28,0.14,26.21
		c0.1,4.94,0.39,7.87,0.87,8.8c0.19,0.42,0.6,0.75,1.23,0.99c0.63,0.24,2.85,0.49,6.68,0.75v4.05l-5.69-0.14
		c-3.6-0.13-6.82-0.19-9.64-0.19L502.19,191.34z"/>
	<path class="st4" d="M604.23,180.87l1.21,1.11c-0.84,1.61-1.58,3.25-2.22,4.92c-3.73,1.96-7.32,3.35-10.78,4.17
		c-3.46,0.82-7.43,1.23-11.94,1.23c-8.42,0-15.55-1.48-21.37-4.44c-5.82-2.96-10.3-7.12-13.43-12.49c-3.13-5.37-4.7-11.53-4.7-18.47
		c0-10,3.54-18.19,10.63-24.57c7.09-6.38,16.87-9.57,29.35-9.57c4.15,0,8.25,0.37,12.32,1.11c4.07,0.74,8.11,1.87,12.13,3.38
		l0.34,0.72c-0.59,1.74-1,3.41-1.23,5.02c-0.43,2.8-0.76,6.27-0.99,10.42h-4.05c-0.19-5.08-0.39-7.87-0.58-8.37
		c-0.19-0.5-1.08-1.35-2.65-2.56c-1.57-1.21-3.7-2.19-6.38-2.94c-2.68-0.76-5.64-1.13-8.89-1.13c-7.71,0-13.84,2.38-18.38,7.14
		c-4.55,4.76-6.82,11.38-6.82,19.87c0,9.2,2.73,16.64,8.2,22.33c5.05,5.27,11.98,7.91,20.79,7.91c3.41,0,6.6-0.35,9.57-1.06
		C597.35,183.88,600.63,182.64,604.23,180.87z"/>
	<path class="st4" d="M615.37,170.95h4.24c0.03,4.75,0.18,7.54,0.46,8.36c0.27,0.82,1.2,1.89,2.77,3.23
		c1.58,1.33,3.62,2.42,6.12,3.25c2.51,0.84,5.08,1.25,7.72,1.25c4.53,0,8.16-1.2,10.88-3.61c2.72-2.41,4.08-5.41,4.08-9.01
		c0-3.31-0.9-5.85-2.7-7.61c-1.83-1.77-5.3-3.02-10.42-3.76c-7.59-1.09-12.71-2.28-15.36-3.57c-2.65-1.29-4.74-3.22-6.27-5.79
		c-1.53-2.57-2.29-5.66-2.29-9.26c0-6.05,2.13-11.17,6.38-15.37c4.26-4.2,11.06-6.3,20.4-6.3c3.66,0,6.91,0.27,9.76,0.82
		c2.84,0.55,5.69,1.45,8.55,2.7l0.48,1.16c-0.52,2.03-0.88,3.86-1.08,5.5c-0.21,1.64-0.39,4.47-0.55,8.5h-4.15
		c-0.16-4.94-0.4-7.72-0.72-8.32c-0.61-1.06-2.16-2.17-4.65-3.35c-2.49-1.17-5.35-1.76-8.56-1.76c-4.4,0-7.82,1.07-10.25,3.21
		c-2.43,2.14-3.64,4.89-3.64,8.26c0,2.06,0.5,3.85,1.5,5.37c1,1.53,2.39,2.65,4.17,3.37c1.78,0.72,5.62,1.55,11.5,2.48
		c5.34,0.8,8.95,1.59,10.85,2.36c3.12,1.25,5.48,3.16,7.09,5.73c1.61,2.57,2.41,5.82,2.41,9.73c0,6.81-2.6,12.47-7.81,16.99
		c-5.21,4.51-12.33,6.77-21.36,6.77c-4.02,0-7.67-0.39-10.95-1.16c-3.28-0.77-6.67-2.04-10.18-3.81c0.58-2.25,0.96-4.29,1.16-6.12
		C615.2,178.68,615.34,175.26,615.37,170.95z"/>
</g>
</svg>
